<svg xmlns="http://www.w3.org/2000/svg" viewBox="0 0 720 460" role="img" aria-labelledby="title desc">
  <title id="title">Ownly brand asset system board</title>
  <desc id="desc">A custom visual board showing logo usage, colors, typography, and premium media direction.</desc>
  <defs>
    <linearGradient id="bg" x1="0" x2="1" y1="0" y2="1"><stop stop-color="#123965"/><stop offset="1" stop-color="#0b2341"/></linearGradient>
    <linearGradient id="gold" x1="0" x2="1"><stop stop-color="#efd37f"/><stop offset="1" stop-color="#c9a227"/></linearGradient>
    <linearGradient id="silver" x1="0" x2="1" y1="0" y2="1"><stop stop-color="#f7f8f8"/><stop offset="1" stop-color="#c8ced6"/></linearGradient>
    <filter id="shadow" x="-20%" y="-20%" width="140%" height="140%"><feDropShadow dx="0" dy="18" stdDeviation="18" flood-color="#0b2341" flood-opacity=".34"/></filter>
  </defs>
  <rect width="720" height="460" rx="28" fill="url(#bg)"/>
  <circle cx="570" cy="110" r="130" fill="#c9a227" opacity=".08"/>
  <circle cx="130" cy="390" r="150" fill="#32b47e" opacity=".08"/>
  <rect x="44" y="38" width="632" height="384" rx="22" fill="#eef2f5" fill-opacity=".06" stroke="#c9a227" stroke-opacity=".32"/>
  <g filter="url(#shadow)">
    <rect x="82" y="78" width="196" height="196" rx="28" fill="url(#silver)"/>
    <path d="M180 112l18 42 44 4-34 29 10 43-38-22-38 22 10-43-34-29 44-4 18-42z" fill="url(#gold)" opacity=".82"/>
    <path d="M104 192c38-54 114-54 152 0-38 54-114 54-152 0z" fill="none" stroke="#0b2341" stroke-width="14"/>
    <circle cx="180" cy="192" r="34" fill="none" stroke="#0b2341" stroke-width="14"/>
    <path d="M180 170l34 62h-68l34-62z" fill="#0b2341"/>
  </g>
  <g>
    <rect x="324" y="82" width="252" height="56" rx="12" fill="#f7f8f8" fill-opacity=".1" stroke="#eef2f5" stroke-opacity=".18"/>
    <text x="346" y="118" font-family="Bebas Neue, Impact, sans-serif" font-size="34" fill="#f7f8f8">OWNLY WEB STUDIO</text>
    <rect x="324" y="166" width="74" height="74" rx="16" fill="#0b2341" stroke="#c9a227" stroke-opacity=".5"/>
    <rect x="416" y="166" width="74" height="74" rx="16" fill="#123965" stroke="#c9a227" stroke-opacity=".5"/>
    <rect x="508" y="166" width="74" height="74" rx="16" fill="url(#gold)"/>
    <rect x="324" y="266" width="258" height="18" rx="9" fill="#f7f8f8"/>
    <rect x="324" y="304" width="210" height="12" rx="6" fill="#f7f8f8" opacity=".62"/>
    <rect x="324" y="332" width="238" height="12" rx="6" fill="#f7f8f8" opacity=".42"/>
    <rect x="324" y="370" width="120" height="28" rx="8" fill="#c9a227"/>
    <text x="346" y="389" font-family="Inter, Arial, sans-serif" font-size="12" font-weight="900" fill="#0b2341">CTA SYSTEM</text>
  </g>
</svg>
