<svg xmlns="http://www.w3.org/2000/svg" viewBox="0 0 760 470" role="img" aria-labelledby="title desc">
  <title id="title">Premium home services website preview</title>
  <desc id="desc">A detailed home services website mockup with navigation, emergency call path, service cards, proof, and quote form.</desc>
  <defs>
    <linearGradient id="bg" x1="0" x2="1" y1="0" y2="1">
      <stop offset="0" stop-color="#eef2f5"/>
      <stop offset=".48" stop-color="#d9e3eb"/>
      <stop offset="1" stop-color="#f7f8f8"/>
    </linearGradient>
    <linearGradient id="navy" x1="0" x2="1">
      <stop offset="0" stop-color="#0b2341"/>
      <stop offset="1" stop-color="#1f5f91"/>
    </linearGradient>
    <linearGradient id="green" x1="0" x2="1" y1="0" y2="1">
      <stop offset="0" stop-color="#32b47e"/>
      <stop offset="1" stop-color="#0b6b4f"/>
    </linearGradient>
    <filter id="shadow" x="-20%" y="-20%" width="140%" height="150%">
      <feDropShadow dx="0" dy="18" stdDeviation="18" flood-color="#0b2341" flood-opacity=".22"/>
    </filter>
  </defs>
  <rect width="760" height="470" rx="26" fill="#0b2341"/>
  <rect x="22" y="24" width="716" height="422" rx="20" fill="url(#bg)" filter="url(#shadow)"/>
  <rect x="22" y="24" width="716" height="50" rx="20" fill="#eef2f5"/>
  <circle cx="50" cy="49" r="5" fill="#0b2341"/>
  <circle cx="68" cy="49" r="5" fill="#1f5f91"/>
  <circle cx="86" cy="49" r="5" fill="#c9a227"/>
  <rect x="116" y="39" width="130" height="17" rx="8.5" fill="#123965"/>
  <rect x="432" y="39" width="54" height="8" rx="4" fill="#9fb2c3"/>
  <rect x="504" y="39" width="54" height="8" rx="4" fill="#9fb2c3"/>
  <rect x="576" y="34" width="116" height="20" rx="10" fill="#c9a227"/>
  <rect x="48" y="98" width="664" height="154" rx="18" fill="url(#navy)"/>
  <path d="M514 235h136v-70l-68-56-68 56z" fill="#eef2f5" opacity=".95"/>
  <path d="M500 172l82-68 82 68" fill="none" stroke="#c9a227" stroke-width="15" stroke-linecap="round" stroke-linejoin="round"/>
  <rect x="554" y="185" width="55" height="50" rx="8" fill="#0b6b4f"/>
  <rect x="74" y="124" width="204" height="18" rx="9" fill="#efd37f"/>
  <rect x="74" y="154" width="290" height="38" rx="10" fill="#eef2f5"/>
  <rect x="74" y="204" width="248" height="10" rx="5" fill="#b8cad8"/>
  <rect x="74" y="222" width="188" height="10" rx="5" fill="#b8cad8"/>
  <rect x="48" y="270" width="202" height="132" rx="16" fill="#ffffff" stroke="#d5dde5"/>
  <rect x="279" y="270" width="202" height="132" rx="16" fill="#ffffff" stroke="#d5dde5"/>
  <rect x="510" y="270" width="202" height="132" rx="16" fill="#ffffff" stroke="#d5dde5"/>
  <rect x="72" y="294" width="72" height="52" rx="12" fill="#d9e3eb"/>
  <path d="M86 332h44v-27l-22-19-22 19z" fill="#123965"/>
  <path d="M82 307l26-22 26 22" fill="none" stroke="#c9a227" stroke-width="5" stroke-linecap="round"/>
  <rect x="160" y="298" width="58" height="9" rx="4.5" fill="#0b2341"/>
  <rect x="160" y="318" width="64" height="7" rx="3.5" fill="#94a8ba"/>
  <rect x="160" y="335" width="44" height="7" rx="3.5" fill="#94a8ba"/>
  <rect x="72" y="364" width="146" height="14" rx="7" fill="#c9a227"/>
  <rect x="303" y="294" width="72" height="52" rx="12" fill="url(#green)"/>
  <path d="M328 333c21-23 38-43 17-58-21 15-4 35 17 58" fill="none" stroke="#eef2f5" stroke-width="7" stroke-linecap="round"/>
  <rect x="391" y="298" width="58" height="9" rx="4.5" fill="#0b2341"/>
  <rect x="391" y="318" width="64" height="7" rx="3.5" fill="#94a8ba"/>
  <rect x="391" y="335" width="44" height="7" rx="3.5" fill="#94a8ba"/>
  <rect x="303" y="364" width="146" height="14" rx="7" fill="#0b6b4f"/>
  <rect x="534" y="294" width="72" height="52" rx="12" fill="#d9e3eb"/>
  <circle cx="570" cy="320" r="22" fill="#123965"/>
  <path d="M570 300v22l15 11" fill="none" stroke="#efd37f" stroke-width="5" stroke-linecap="round"/>
  <rect x="622" y="298" width="58" height="9" rx="4.5" fill="#0b2341"/>
  <rect x="622" y="318" width="64" height="7" rx="3.5" fill="#94a8ba"/>
  <rect x="622" y="335" width="44" height="7" rx="3.5" fill="#94a8ba"/>
  <rect x="534" y="364" width="146" height="14" rx="7" fill="#c9a227"/>
  <rect x="48" y="418" width="318" height="11" rx="5.5" fill="#123965" opacity=".72"/>
  <rect x="392" y="416" width="124" height="15" rx="7.5" fill="#0b6b4f"/>
  <rect x="536" y="416" width="176" height="15" rx="7.5" fill="#d5dde5"/>
</svg>
