<svg xmlns="http://www.w3.org/2000/svg" viewBox="0 0 760 470" role="img" aria-labelledby="title desc">
  <title id="title">Premium hospitality and commerce website preview</title>
  <desc id="desc">A detailed hospitality website mockup with visual menu tiles, reservation path, offer highlights, and commerce cards.</desc>
  <defs>
    <linearGradient id="bg" x1="0" x2="1" y1="0" y2="1">
      <stop offset="0" stop-color="#eef2f5"/>
      <stop offset=".48" stop-color="#f7f8f8"/>
      <stop offset="1" stop-color="#d5dde5"/>
    </linearGradient>
    <linearGradient id="hero" x1="0" x2="1" y1="0" y2="1">
      <stop offset="0" stop-color="#123965"/>
      <stop offset=".52" stop-color="#0b6b4f"/>
      <stop offset="1" stop-color="#1f5f91"/>
    </linearGradient>
    <radialGradient id="plate" cx="50%" cy="45%" r="55%">
      <stop offset="0" stop-color="#ffffff"/>
      <stop offset=".58" stop-color="#eef2f5"/>
      <stop offset=".62" stop-color="#c9a227"/>
      <stop offset="1" stop-color="#94741f"/>
    </radialGradient>
    <filter id="shadow" x="-20%" y="-20%" width="140%" height="150%">
      <feDropShadow dx="0" dy="18" stdDeviation="18" flood-color="#0b2341" flood-opacity=".22"/>
    </filter>
  </defs>
  <rect width="760" height="470" rx="26" fill="#0b2341"/>
  <rect x="22" y="24" width="716" height="422" rx="20" fill="url(#bg)" filter="url(#shadow)"/>
  <rect x="22" y="24" width="716" height="50" rx="20" fill="#eef2f5"/>
  <circle cx="50" cy="49" r="5" fill="#0b2341"/>
  <circle cx="68" cy="49" r="5" fill="#1f5f91"/>
  <circle cx="86" cy="49" r="5" fill="#c9a227"/>
  <rect x="116" y="39" width="144" height="17" rx="8.5" fill="#123965"/>
  <rect x="432" y="39" width="54" height="8" rx="4" fill="#9fb2c3"/>
  <rect x="504" y="39" width="54" height="8" rx="4" fill="#9fb2c3"/>
  <rect x="576" y="34" width="116" height="20" rx="10" fill="#c9a227"/>
  <rect x="48" y="98" width="664" height="178" rx="18" fill="url(#hero)"/>
  <circle cx="577" cy="188" r="62" fill="url(#plate)"/>
  <circle cx="577" cy="188" r="27" fill="#0b6b4f"/>
  <path d="M548 172c29 16 48 17 77 0" fill="none" stroke="#efd37f" stroke-width="8" stroke-linecap="round"/>
  <rect x="74" y="128" width="88" height="12" rx="6" fill="#efd37f"/>
  <rect x="74" y="158" width="240" height="38" rx="10" fill="#ffffff"/>
  <rect x="74" y="211" width="264" height="10" rx="5" fill="#b8cad8"/>
  <rect x="74" y="231" width="178" height="10" rx="5" fill="#b8cad8"/>
  <rect x="74" y="250" width="116" height="18" rx="9" fill="#c9a227"/>
  <rect x="48" y="302" width="154" height="102" rx="16" fill="#ffffff" stroke="#d5dde5"/>
  <rect x="67" y="320" width="116" height="42" rx="12" fill="#dfe7ee"/>
  <circle cx="105" cy="341" r="17" fill="#0b6b4f"/>
  <path d="M123 328l28 27" stroke="#c9a227" stroke-width="7" stroke-linecap="round"/>
  <rect x="67" y="376" width="116" height="8" rx="4" fill="#0b2341"/>
  <rect x="67" y="390" width="74" height="6" rx="3" fill="#94a8ba"/>
  <rect x="219" y="302" width="154" height="102" rx="16" fill="#ffffff" stroke="#d5dde5"/>
  <rect x="238" y="320" width="116" height="42" rx="12" fill="#dfe7ee"/>
  <rect x="268" y="328" width="56" height="26" rx="13" fill="#c9a227"/>
  <path d="M250 352c28-20 63-20 91 0" stroke="#0b6b4f" stroke-width="7" stroke-linecap="round"/>
  <rect x="238" y="376" width="116" height="8" rx="4" fill="#0b2341"/>
  <rect x="238" y="390" width="74" height="6" rx="3" fill="#94a8ba"/>
  <rect x="390" y="302" width="154" height="102" rx="16" fill="#ffffff" stroke="#d5dde5"/>
  <rect x="409" y="320" width="116" height="42" rx="12" fill="#dfe7ee"/>
  <path d="M442 351h50m-25-25v50" stroke="#123965" stroke-width="8" stroke-linecap="round"/>
  <circle cx="467" cy="351" r="28" fill="none" stroke="#c9a227" stroke-width="7"/>
  <rect x="409" y="376" width="116" height="8" rx="4" fill="#0b2341"/>
  <rect x="409" y="390" width="74" height="6" rx="3" fill="#94a8ba"/>
  <rect x="561" y="302" width="151" height="102" rx="16" fill="#123965"/>
  <rect x="584" y="325" width="106" height="10" rx="5" fill="#efd37f"/>
  <rect x="584" y="348" width="106" height="12" rx="6" fill="#eef2f5" opacity=".8"/>
  <rect x="584" y="371" width="106" height="16" rx="8" fill="#0b6b4f"/>
  <rect x="48" y="420" width="220" height="12" rx="6" fill="#123965" opacity=".72"/>
  <rect x="288" y="420" width="138" height="12" rx="6" fill="#c9a227" opacity=".82"/>
  <rect x="446" y="420" width="266" height="12" rx="6" fill="#c8ced6"/>
</svg>
