<svg xmlns="http://www.w3.org/2000/svg" viewBox="0 0 760 470" role="img" aria-labelledby="title desc">
  <title id="title">Premium professional services website preview</title>
  <desc id="desc">A detailed authority website mockup with credentials, advisor content, performance chart, booking panel, and trust proof.</desc>
  <defs>
    <linearGradient id="bg" x1="0" x2="1" y1="0" y2="1">
      <stop offset="0" stop-color="#f7f8f8"/>
      <stop offset=".52" stop-color="#e4eaf0"/>
      <stop offset="1" stop-color="#c8ced6"/>
    </linearGradient>
    <linearGradient id="navy" x1="0" x2="1">
      <stop offset="0" stop-color="#0b2341"/>
      <stop offset="1" stop-color="#123965"/>
    </linearGradient>
    <filter id="shadow" x="-20%" y="-20%" width="140%" height="150%">
      <feDropShadow dx="0" dy="18" stdDeviation="18" flood-color="#0b2341" flood-opacity=".22"/>
    </filter>
  </defs>
  <rect width="760" height="470" rx="26" fill="#0b2341"/>
  <rect x="22" y="24" width="716" height="422" rx="20" fill="url(#bg)" filter="url(#shadow)"/>
  <rect x="22" y="24" width="716" height="50" rx="20" fill="#eef2f5"/>
  <circle cx="50" cy="49" r="5" fill="#0b2341"/>
  <circle cx="68" cy="49" r="5" fill="#1f5f91"/>
  <circle cx="86" cy="49" r="5" fill="#c9a227"/>
  <rect x="116" y="39" width="154" height="17" rx="8.5" fill="#123965"/>
  <rect x="432" y="39" width="54" height="8" rx="4" fill="#9fb2c3"/>
  <rect x="504" y="39" width="54" height="8" rx="4" fill="#9fb2c3"/>
  <rect x="576" y="34" width="116" height="20" rx="10" fill="#c9a227"/>
  <rect x="48" y="99" width="305" height="168" rx="18" fill="url(#navy)"/>
  <rect x="76" y="128" width="78" height="12" rx="6" fill="#efd37f"/>
  <rect x="76" y="158" width="218" height="34" rx="10" fill="#eef2f5"/>
  <rect x="76" y="205" width="232" height="9" rx="4.5" fill="#a9bac9"/>
  <rect x="76" y="223" width="164" height="9" rx="4.5" fill="#a9bac9"/>
  <rect x="76" y="241" width="118" height="18" rx="9" fill="#0b6b4f"/>
  <rect x="382" y="99" width="330" height="168" rx="18" fill="#ffffff" stroke="#d5dde5"/>
  <path d="M548 124l78 30v42c0 45-34 73-78 87-44-14-78-42-78-87v-42z" fill="#c9a227" opacity=".98"/>
  <path d="M548 145l52 20v28c0 30-22 50-52 60-30-10-52-30-52-60v-28z" fill="#123965"/>
  <circle cx="548" cy="191" r="24" fill="#eef2f5"/>
  <path d="M536 192l9 9 19-24" fill="none" stroke="#0b6b4f" stroke-width="7" stroke-linecap="round" stroke-linejoin="round"/>
  <rect x="48" y="294" width="202" height="110" rx="16" fill="#ffffff" stroke="#d5dde5"/>
  <rect x="76" y="318" width="138" height="11" rx="5.5" fill="#0b2341"/>
  <rect x="76" y="345" width="146" height="8" rx="4" fill="#94a8ba"/>
  <rect x="76" y="363" width="94" height="8" rx="4" fill="#94a8ba"/>
  <rect x="76" y="381" width="118" height="12" rx="6" fill="#c9a227"/>
  <rect x="279" y="294" width="202" height="110" rx="16" fill="#ffffff" stroke="#d5dde5"/>
  <path d="M315 371h128" stroke="#c8ced6" stroke-width="3"/>
  <path d="M315 362c25-34 48-12 72-44 22-29 43-7 56-30" fill="none" stroke="#0b6b4f" stroke-width="7" stroke-linecap="round"/>
  <circle cx="315" cy="362" r="6" fill="#c9a227"/>
  <circle cx="387" cy="318" r="6" fill="#c9a227"/>
  <circle cx="443" cy="288" r="6" fill="#c9a227"/>
  <rect x="510" y="294" width="202" height="110" rx="16" fill="#ffffff" stroke="#d5dde5"/>
  <rect x="536" y="318" width="150" height="10" rx="5" fill="#0b2341"/>
  <rect x="536" y="344" width="150" height="12" rx="6" fill="#e2e8ee"/>
  <rect x="536" y="366" width="104" height="12" rx="6" fill="#e2e8ee"/>
  <rect x="536" y="383" width="150" height="14" rx="7" fill="#c9a227"/>
  <rect x="48" y="420" width="158" height="12" rx="6" fill="#123965" opacity=".72"/>
  <rect x="226" y="420" width="118" height="12" rx="6" fill="#c9a227" opacity=".82"/>
  <rect x="364" y="420" width="348" height="12" rx="6" fill="#c8ced6"/>
</svg>
